<svg width="49" height="48" viewBox="0 0 49 48" fill="none" xmlns="http://www.w3.org/2000/svg">
<path d="M0 24C0 10.7452 10.7452 0 24 0L25 0C38.2548 0 49 10.7452 49 24C49 37.2548 38.2548 48 25 48H24C10.7452 48 0 37.2548 0 24Z" fill="white"/>
<path d="M28.132 10.9057C25.987 10.9057 24.2483 12.6545 24.2483 14.812C24.2483 12.6545 22.5097 10.9057 20.3652 10.9057C22.5103 10.9057 24.2483 9.15695 24.2483 7C24.2483 9.15756 25.9876 10.9057 28.132 10.9057Z" fill="#E22D43"/>
<path d="M24.767 29.9504C24.7592 30.0881 24.7556 30.2258 24.7556 30.3652H32.4894V38.1471H16V30.3646H23.7338C23.7338 30.3163 23.7332 30.2692 23.7326 30.2215C23.732 30.1793 23.7308 30.137 23.729 30.0953C23.7278 30.0615 23.7266 30.0283 23.7248 29.9945C23.7242 29.9715 23.723 29.9492 23.7212 29.9262C23.72 29.893 23.7176 29.8604 23.7152 29.8278C23.711 29.7626 23.7056 29.698 23.6996 29.6334C23.6936 29.5688 23.687 29.5042 23.6792 29.4401C23.6732 29.3864 23.6659 29.3327 23.6587 29.2795C23.6569 29.2656 23.6551 29.2517 23.6527 29.2379C23.6443 29.1775 23.6347 29.1177 23.6245 29.0585C23.6167 29.0108 23.6083 28.9631 23.5993 28.916C23.5981 28.9088 23.5969 28.9015 23.5951 28.8949C23.5909 28.8707 23.5861 28.8472 23.5813 28.8236C23.5717 28.7747 23.5615 28.7258 23.5507 28.6769C23.5399 28.6292 23.5291 28.5815 23.5177 28.5344C23.5165 28.5283 23.5153 28.5223 23.5135 28.5169C23.5075 28.4909 23.5009 28.4649 23.4942 28.4396C23.4534 28.2783 23.4078 28.1195 23.3574 27.9631C23.3514 27.945 23.3454 27.9263 23.3394 27.9082C23.3352 27.8961 23.3316 27.884 23.3273 27.8726C23.3165 27.8399 23.3051 27.8073 23.2937 27.7747C23.2739 27.7174 23.2529 27.6606 23.2313 27.6038C23.2301 27.599 23.2283 27.5948 23.2265 27.5912C23.1833 27.477 23.1376 27.3641 23.089 27.253V27.2524C23.0644 27.1956 23.0386 27.1395 23.0128 27.0833C23.0122 27.0821 23.0116 27.0809 23.0116 27.0803C22.9857 27.0247 22.9593 26.9698 22.9323 26.9154C22.9149 26.8798 22.8975 26.8448 22.8795 26.8098C22.8615 26.7747 22.8435 26.7397 22.8248 26.7053C22.751 26.5664 22.6736 26.43 22.5913 26.2965C22.5709 26.2633 22.5505 26.2301 22.5295 26.1969C22.5187 26.1788 22.5073 26.1612 22.4959 26.1437C22.4514 26.0755 22.4064 26.0073 22.3602 25.9408C22.2899 25.8382 22.2167 25.7373 22.141 25.6383C22.1224 25.6135 22.1038 25.5888 22.084 25.5646C22.0654 25.5399 22.0462 25.5157 22.0264 25.4916C22.0078 25.4674 21.988 25.4433 21.9675 25.4191C21.9075 25.3454 21.8457 25.2736 21.7826 25.2023C20.3664 23.5985 18.3006 22.5883 16 22.5883V14.8028C16.0786 14.798 16.1573 14.7944 16.2365 14.7913C16.3242 14.7883 16.4124 14.7871 16.5007 14.7871C20.777 14.7871 24.2441 18.2737 24.2447 22.575C24.2447 18.2786 27.7075 14.7962 31.9785 14.7962C32.0253 14.7962 32.0715 14.7968 32.1184 14.7974C32.2426 14.7998 32.3663 14.8046 32.4894 14.8131V22.5889C29.9757 22.5889 27.7418 23.7954 26.3297 25.6637C26.2979 25.7053 26.2673 25.747 26.2367 25.7887C26.2175 25.8152 26.1989 25.8418 26.1802 25.8684C26.1628 25.8925 26.1454 25.9173 26.1292 25.9414C26.1112 25.9668 26.0938 25.9928 26.0764 26.0187C26.059 26.0447 26.0416 26.0707 26.0247 26.0966C25.9827 26.1612 25.9413 26.2265 25.9011 26.2923C25.8813 26.3237 25.8621 26.3557 25.8428 26.3883C25.79 26.4777 25.7384 26.5682 25.6891 26.66C25.6699 26.6956 25.6507 26.7313 25.6327 26.7669C25.6075 26.8146 25.5835 26.8623 25.5595 26.9106C25.5589 26.9118 25.5583 26.913 25.5583 26.9136C25.5307 26.9692 25.5042 27.0247 25.4778 27.0809C25.4778 27.0809 25.4778 27.0809 25.4778 27.0815C25.4514 27.1377 25.4262 27.1944 25.401 27.2518C25.401 27.2524 25.401 27.2524 25.4004 27.253C25.3764 27.3086 25.3529 27.3641 25.3301 27.4203C25.3019 27.4891 25.2749 27.5579 25.2497 27.628C25.2305 27.6769 25.2131 27.7258 25.1957 27.7753C25.1842 27.8079 25.1728 27.8405 25.162 27.8732C25.1578 27.8846 25.1542 27.8967 25.15 27.9088C25.144 27.9269 25.138 27.9456 25.132 27.9637C25.1296 27.9722 25.1266 27.9806 25.1242 27.9891C25.1092 28.0344 25.0954 28.0797 25.0822 28.1256C25.0798 28.1322 25.0774 28.1395 25.0756 28.1461C25.0588 28.2029 25.0426 28.2596 25.0276 28.3164C25.0131 28.3701 24.9987 28.4239 24.9855 28.4782C24.9819 28.4909 24.9789 28.5042 24.9759 28.5175C24.9633 28.5694 24.9507 28.6219 24.9393 28.6745C24.9369 28.6847 24.9351 28.695 24.9327 28.7053C24.9219 28.756 24.9111 28.8067 24.9015 28.858C24.8985 28.8701 24.8961 28.8828 24.8943 28.8955C24.8835 28.9504 24.8733 29.006 24.8643 29.0621C24.8625 29.07 24.8613 29.0784 24.8601 29.0869C24.8517 29.1364 24.8438 29.1859 24.8366 29.236C24.8348 29.2505 24.8324 29.265 24.8306 29.2801C24.8234 29.3327 24.8162 29.3864 24.8102 29.4395C24.8096 29.442 24.8096 29.4444 24.8096 29.4468C24.8024 29.5029 24.7964 29.5591 24.7916 29.6159C24.7904 29.6267 24.7892 29.6376 24.7886 29.6485C24.7844 29.6883 24.7814 29.7288 24.7784 29.7692C24.776 29.794 24.7748 29.8188 24.773 29.8435C24.7706 29.8791 24.7682 29.9142 24.767 29.9504Z" fill="#E22D43"/>
</svg>
