<svg width="56" height="56" viewBox="0 0 56 56" fill="none" xmlns="http://www.w3.org/2000/svg">
<path d="M41.7161 46.8775C37.7296 49.7738 32.9286 51.3337 28.0011 51.3337C23.0736 51.3337 18.2726 49.7738 14.2861 46.8775M38.2298 7.02855C42.6586 9.18863 46.2899 12.6953 48.6032 17.0461C50.9165 21.3968 51.7931 26.3682 51.1074 31.2478M4.89507 31.2476C4.2093 26.368 5.08589 21.3966 7.39922 17.0458C9.71255 12.6951 13.3438 9.1884 17.7727 7.02832M40.8344 28.0004C40.8344 35.0881 35.0888 40.8337 28.0011 40.8337C20.9134 40.8337 15.1678 35.0881 15.1678 28.0004C15.1678 20.9128 20.9134 15.1671 28.0011 15.1671C35.0888 15.1671 40.8344 20.9128 40.8344 28.0004Z" stroke="white" stroke-width="4" stroke-linecap="round" stroke-linejoin="round"/>
</svg>
